<svg width="959" height="150" viewBox="0 0 959 150" fill="none" xmlns="http://www.w3.org/2000/svg">
<g clip-path="url(#clip0_1_530)">
<path d="M78.8141 0H64.1754L0 148.996H15.4453L32.2893 109.199L37.7038 96.4218L71.3918 16.3892L105.08 96.4218L110.494 109.199L127.338 148.996H142.981L78.8141 0Z" fill="#8CDEDC"/>
<path d="M215.771 0.197388H230.007V148.996H215.771V0.197388Z" fill="url(#paint0_linear_1_530)"/>
<path d="M429.132 96.2588C429.132 128.145 406.676 150 376.592 150C359.147 150 344.508 142.38 335.885 128.145V149.005H322.25V0.197388H336.485V63.5662C345.306 49.9314 359.748 42.715 376.592 42.715C406.676 42.715 429.132 64.3728 429.132 96.2588ZM414.896 96.2588C414.896 71.5892 397.846 55.1485 375.588 55.1485C353.329 55.1485 336.279 71.5892 336.279 96.2588C336.279 120.928 353.123 137.369 375.588 137.369C398.052 137.369 414.896 120.928 414.896 96.2588Z" fill="url(#paint1_linear_1_530)"/>
<path d="M617.625 96.2588C617.625 128.145 595.169 150 565.085 150C547.64 150 533.002 142.38 524.378 128.145V149.005H510.743V0.197388H524.979V63.5662C533.8 49.9314 548.241 42.715 565.085 42.715C595.169 42.715 617.625 64.3728 617.625 96.2588ZM603.389 96.2588C603.389 71.5892 586.348 55.1485 564.081 55.1485C541.814 55.1485 524.773 71.5892 524.773 96.2588C524.773 120.928 541.617 137.369 564.081 137.369C586.545 137.369 603.389 120.928 603.389 96.2588Z" fill="url(#paint2_linear_1_530)"/>
<path d="M794.294 43.5129V148.996H780.659V129.741C773.237 142.578 759.602 149.991 742.758 149.991C715.883 149.991 698.241 134.949 698.241 104.668V43.5129H712.476V103.269C712.476 125.725 724.103 137.163 744.156 137.163C766.218 137.163 780.05 122.928 780.05 98.8587V43.5129H794.285H794.294Z" fill="#C8D96F"/>
<path d="M872.087 136.966L878.505 125.734C886.932 132.349 901.167 137.567 916.003 137.567C936.056 137.567 944.277 130.745 944.277 120.319C944.277 92.8437 875.897 114.501 875.897 72.7905C875.897 55.5432 890.733 42.715 917.608 42.715C931.242 42.715 946.087 46.5248 954.908 52.5399L948.687 63.9695C939.463 57.5511 928.437 54.9425 917.608 54.9425C898.558 54.9425 890.132 62.3649 890.132 72.3872C890.132 100.867 958.512 79.4062 958.512 119.916C958.512 138.167 942.466 150 914.999 150C897.554 150 880.711 144.388 872.087 136.966Z" fill="#C8D96F"/>
</g>
<defs>
<linearGradient id="paint0_linear_1_530" x1="215.771" y1="74.601" x2="230.007" y2="74.601" gradientUnits="userSpaceOnUse">
<stop stop-color="#8CDEDC"/>
<stop offset="0.99" stop-color="#8CDEDC"/>
</linearGradient>
<linearGradient id="paint1_linear_1_530" x1="322.25" y1="75.0987" x2="429.132" y2="75.0987" gradientUnits="userSpaceOnUse">
<stop stop-color="#8CDEDC"/>
<stop offset="0.06" stop-color="#91DDD2"/>
<stop offset="0.17" stop-color="#9EDCB9"/>
<stop offset="0.18" stop-color="#A1DCB5"/>
<stop offset="1" stop-color="#A9DCA7"/>
</linearGradient>
<linearGradient id="paint2_linear_1_530" x1="510.743" y1="75.0987" x2="617.625" y2="75.0987" gradientUnits="userSpaceOnUse">
<stop stop-color="#A9DCA7"/>
<stop offset="0.26" stop-color="#AEDB9D"/>
<stop offset="0.7" stop-color="#BCDA84"/>
<stop offset="1" stop-color="#C8D96F"/>
</linearGradient>
<clipPath id="clip0_1_530">
<rect width="958.521" height="150" fill="white"/>
</clipPath>
</defs>
</svg>
