<svg width="56" height="55" viewBox="0 0 56 55" fill="none" xmlns="http://www.w3.org/2000/svg">
<g clip-path="url(#clip0_125_624)">
<path d="M21.5 19V9" stroke="#8CDEDC" stroke-width="2"/>
<path d="M28.5 21V3" stroke="#8CDEDC" stroke-width="2"/>
<path d="M35.5 19V8" stroke="#8CDEDC" stroke-width="2"/>
<path d="M35.5 12.5C36.8807 12.5 38 11.3807 38 10C38 8.61929 36.8807 7.5 35.5 7.5C34.1193 7.5 33 8.61929 33 10C33 11.3807 34.1193 12.5 35.5 12.5Z" fill="#000C25" stroke="#8CDEDC"/>
<path d="M28.5 5.5C29.8807 5.5 31 4.38071 31 3C31 1.61929 29.8807 0.5 28.5 0.5C27.1193 0.5 26 1.61929 26 3C26 4.38071 27.1193 5.5 28.5 5.5Z" fill="#000C25" stroke="#8CDEDC"/>
<path d="M21.5 12.5C22.8807 12.5 24 11.3807 24 10C24 8.61929 22.8807 7.5 21.5 7.5C20.1193 7.5 19 8.61929 19 10C19 11.3807 20.1193 12.5 21.5 12.5Z" fill="#000C25" stroke="#8CDEDC"/>
<path d="M35.5 36V46" stroke="#8CDEDC" stroke-width="2"/>
<path d="M28.5 34V52" stroke="#8CDEDC" stroke-width="2"/>
<path d="M21.5 36V47" stroke="#8CDEDC" stroke-width="2"/>
<path d="M21.5 42.5C20.1193 42.5 19 43.6193 19 45C19 46.3807 20.1193 47.5 21.5 47.5C22.8807 47.5 24 46.3807 24 45C24 43.6193 22.8807 42.5 21.5 42.5Z" fill="#000C25" stroke="#8CDEDC"/>
<path d="M28.5 49.5C27.1193 49.5 26 50.6193 26 52C26 53.3807 27.1193 54.5 28.5 54.5C29.8807 54.5 31 53.3807 31 52C31 50.6193 29.8807 49.5 28.5 49.5Z" fill="#000C25" stroke="#8CDEDC"/>
<path d="M35.5 42.5C34.1193 42.5 33 43.6193 33 45C33 46.3807 34.1193 47.5 35.5 47.5C36.8807 47.5 38 46.3807 38 45C38 43.6193 36.8807 42.5 35.5 42.5Z" fill="#000C25" stroke="#8CDEDC"/>
<path d="M19.5 35H9.5" stroke="#8CDEDC" stroke-width="2"/>
<path d="M21.5 28H3.5" stroke="#8CDEDC" stroke-width="2"/>
<path d="M19.5 21H8.5" stroke="#8CDEDC" stroke-width="2"/>
<path d="M13 21C13 19.6193 11.8807 18.5 10.5 18.5C9.11929 18.5 8 19.6193 8 21C8 22.3807 9.11929 23.5 10.5 23.5C11.8807 23.5 13 22.3807 13 21Z" fill="#000C25" stroke="#8CDEDC"/>
<path d="M6 28C6 26.6193 4.88071 25.5 3.5 25.5C2.11929 25.5 1 26.6193 1 28C1 29.3807 2.11929 30.5 3.5 30.5C4.88071 30.5 6 29.3807 6 28Z" fill="#000C25" stroke="#8CDEDC"/>
<path d="M13 35C13 33.6193 11.8807 32.5 10.5 32.5C9.11929 32.5 8 33.6193 8 35C8 36.3807 9.11929 37.5 10.5 37.5C11.8807 37.5 13 36.3807 13 35Z" fill="#000C25" stroke="#8CDEDC"/>
<path d="M36.5 21H46.5" stroke="#8CDEDC" stroke-width="2"/>
<path d="M34.5 28H52.5" stroke="#8CDEDC" stroke-width="2"/>
<path d="M36.5 35H47.5" stroke="#8CDEDC" stroke-width="2"/>
<path d="M43 35C43 36.3807 44.1193 37.5 45.5 37.5C46.8807 37.5 48 36.3807 48 35C48 33.6193 46.8807 32.5 45.5 32.5C44.1193 32.5 43 33.6193 43 35Z" fill="#000C25" stroke="#8CDEDC"/>
<path d="M50 28C50 29.3807 51.1193 30.5 52.5 30.5C53.8807 30.5 55 29.3807 55 28C55 26.6193 53.8807 25.5 52.5 25.5C51.1193 25.5 50 26.6193 50 28Z" fill="#000C25" stroke="#8CDEDC"/>
<path d="M43 21C43 22.3807 44.1193 23.5 45.5 23.5C46.8807 23.5 48 22.3807 48 21C48 19.6193 46.8807 18.5 45.5 18.5C44.1193 18.5 43 19.6193 43 21Z" fill="#000C25" stroke="#8CDEDC"/>
<path d="M35.5 16H20.5C18.2909 16 16.5 17.7909 16.5 20V35C16.5 37.2091 18.2909 39 20.5 39H35.5C37.7091 39 39.5 37.2091 39.5 35V20C39.5 17.7909 37.7091 16 35.5 16Z" fill="#000C25" stroke="#8CDEDC" stroke-width="2"/>
<path d="M29.841 34L28.721 31.408H23.121L22.017 34H19.873L24.913 22.8H26.961L32.017 34H29.841ZM23.825 29.776H28.033L25.921 24.88L23.825 29.776ZM33.4414 34V22.8H35.5214V34H33.4414Z" fill="#8CDEDC"/>
</g>
<defs>
<clipPath id="clip0_125_624">
<rect width="55" height="55" fill="white" transform="translate(0.5)"/>
</clipPath>
</defs>
</svg>
