<svg width="54" height="55" viewBox="0 0 54 55" fill="none" xmlns="http://www.w3.org/2000/svg">
<path d="M4.37153 25.6929L49.5501 5.14644M49.5501 5.14644L41.1037 1.96429M49.5501 5.14644L46.4072 13.5929M51.5537 53.075H41.7322V25.575C41.7322 25.054 41.9392 24.5544 42.3076 24.186C42.6759 23.8177 43.1756 23.6107 43.6965 23.6107H49.5894C50.1104 23.6107 50.61 23.8177 50.9784 24.186C51.3467 24.5544 51.5537 25.054 51.5537 25.575V53.075ZM31.9108 53.075H22.0894V31.4679C22.0894 30.9469 22.2963 30.4473 22.6647 30.0789C23.0331 29.7105 23.5327 29.5036 24.0537 29.5036H29.9465C30.4675 29.5036 30.9671 29.7105 31.3355 30.0789C31.7039 30.4473 31.9108 30.9469 31.9108 31.4679V53.075ZM12.268 53.075H2.44653V37.3607C2.44653 36.8398 2.65348 36.3401 3.02186 35.9718C3.39023 35.6034 3.88986 35.3964 4.41082 35.3964H10.3037C10.8246 35.3964 11.3243 35.6034 11.6926 35.9718C12.061 36.3401 12.268 36.8398 12.268 37.3607V53.075Z" stroke="#8CDEDC" stroke-width="4" stroke-linecap="round" stroke-linejoin="round"/>
</svg>
