<svg width="39" height="40" viewBox="0 0 39 40" fill="none" xmlns="http://www.w3.org/2000/svg">
<path d="M34.3181 22C34.5 21.2727 34.5 20.5455 34.5 20C34.5 19.4545 34.5 18.5455 34.3181 18L38.5 14.9091C38.8636 14.5455 39.0454 14 38.8636 13.6364L34.6818 6.54546C34.5 6.18182 33.9545 6 33.4091 6.18182L28.6818 8.36364C27.5909 7.45455 26.3181 6.72727 25.0454 6.18182L24.5 0.909091C24.5 0.363636 23.9545 0 23.5909 0H15.4091C14.8636 0 14.5 0.363636 14.5 0.909091L13.9545 6.18182C12.6818 6.72727 11.4091 7.45455 10.3181 8.36364L5.59087 6.18182C5.04542 6 4.49997 6.18182 4.31815 6.54546L0.136329 13.6364C-0.0454896 14 -0.0454882 14.7273 0.499966 14.9091L4.68178 18C4.49996 18.7273 4.49996 19.4545 4.49996 20C4.49996 20.5455 4.49996 21.4545 4.68178 22L0.499966 25.0909C0.13633 25.4545 -0.0454896 26 0.136329 26.3636L4.31815 33.4545C4.49997 33.8182 5.04542 34 5.59087 33.8182L10.3181 31.6364C11.4091 32.5455 12.6818 33.2727 13.9545 33.8182L14.5 39.0909C14.5 39.6364 15.0454 40 15.4091 40H23.5909C24.1363 40 24.5 39.6364 24.5 39.0909L25.0454 33.8182C26.3181 33.2727 27.5909 32.5455 28.6818 31.6364L33.4091 33.8182C33.9545 34 34.5 33.8182 34.6818 33.4545L38.8636 26.3636C39.0454 26 39.0454 25.2727 38.5 25.0909L34.3181 22ZM19.4091 29.4545C14.1363 29.4545 9.95451 25.2727 9.95451 20C9.95451 14.7273 14.1363 10.5455 19.4091 10.5455C24.6818 10.5455 28.8636 14.7273 28.8636 20C28.8636 25.2727 24.6818 29.4545 19.4091 29.4545Z" fill="url(#paint0_linear_1_82)"/>
<defs>
<linearGradient id="paint0_linear_1_82" x1="19.5" y1="0" x2="19.5" y2="40" gradientUnits="userSpaceOnUse">
<stop stop-color="#8CDEDC"/>
<stop offset="1" stop-color="#006847"/>
</linearGradient>
</defs>
</svg>
