<svg width="70" height="55" viewBox="0 0 70 55" fill="none" xmlns="http://www.w3.org/2000/svg">
<path d="M33.7647 14.5342C34.5274 13.8574 34.8282 12.7939 34.4307 11.8486C34.1836 11.2793 33.9151 10.7207 33.6143 10.1836L33.2813 9.60352C32.959 9.06641 32.6045 8.54004 32.2286 8.03516C31.6162 7.21875 30.542 6.95019 29.5752 7.27246L26.5459 8.27148C25.3965 7.32617 24.0752 6.55273 22.6573 6.02637L22.002 2.91113C21.7979 1.91211 21.0244 1.11719 20.0147 0.999023C19.3057 0.902344 18.586 0.859375 17.8555 0.859375H17.7803C17.0498 0.859375 16.3301 0.902344 15.6211 0.988281C14.6114 1.10645 13.8379 1.91211 13.6338 2.90039L12.9786 6.02637C11.5498 6.56348 10.2393 7.32617 9.08988 8.27148L6.04984 7.2832C5.08304 6.96094 4.00882 7.22949 3.39652 8.0459C3.02054 8.55078 2.66605 9.07715 2.33304 9.61426L2.01078 10.1836C1.70999 10.7207 1.44144 11.2793 1.19437 11.8594C0.796908 12.7939 1.09769 13.8574 1.86038 14.5449L4.24515 16.6719C4.12699 17.3916 4.06253 18.1436 4.06253 18.9062C4.06253 19.6689 4.12699 20.4209 4.24515 21.1514L1.86038 23.2783C1.09769 23.9551 0.796908 25.0186 1.19437 25.9639C1.44144 26.5332 1.70999 27.0918 2.01078 27.6396L2.33304 28.1982C2.65531 28.7461 3.0098 29.2617 3.39652 29.7666C4.00882 30.583 5.08304 30.8516 6.04984 30.5293L9.07914 29.5303C10.2285 30.4756 11.5498 31.249 12.9678 31.7754L13.6231 34.9014C13.8272 35.9004 14.6006 36.6953 15.6104 36.8135C16.3301 36.8994 17.0606 36.9424 17.8018 36.9424C18.543 36.9424 19.2735 36.8994 19.9932 36.8135C21.003 36.6953 21.7764 35.8896 21.9805 34.9014L22.6358 31.7754C24.0645 31.2383 25.375 30.4756 26.5244 29.5303L29.5537 30.5293C30.5205 30.8516 31.5948 30.583 32.2071 29.7666C32.583 29.2617 32.9375 28.7461 33.2598 28.1982L33.5928 27.6182C33.8936 27.0811 34.1621 26.5225 34.4092 25.9531C34.8067 25.0186 34.5059 23.9551 33.7432 23.2676L31.3584 21.1406C31.4766 20.4102 31.5411 19.6582 31.5411 18.8955C31.5411 18.1328 31.4766 17.3809 31.3584 16.6504L33.7432 14.5234L33.7647 14.5342ZM12.6563 18.9062C12.6563 17.5387 13.1995 16.2272 14.1665 15.2602C15.1335 14.2932 16.445 13.75 17.8125 13.75C19.1801 13.75 20.4916 14.2932 21.4586 15.2602C22.4255 16.2272 22.9688 17.5387 22.9688 18.9062C22.9688 20.2738 22.4255 21.5853 21.4586 22.5523C20.4916 23.5193 19.1801 24.0625 17.8125 24.0625C16.445 24.0625 15.1335 23.5193 14.1665 22.5523C13.1995 21.5853 12.6563 20.2738 12.6563 18.9062ZM54.8409 53.7646C55.5176 54.5273 56.5811 54.8281 57.5264 54.4307C58.0957 54.1836 58.6543 53.915 59.1914 53.6143L59.7715 53.2812C60.3086 52.959 60.835 52.6045 61.3399 52.2285C62.1563 51.6162 62.4248 50.542 62.1026 49.5752L61.1036 46.5459C62.0489 45.3965 62.8223 44.0752 63.3487 42.6572L66.4746 42.002C67.4737 41.7979 68.2686 41.0244 68.3868 40.0146C68.4727 39.2949 68.5157 38.5645 68.5157 37.8232C68.5157 37.082 68.4727 36.3516 68.3868 35.6318C68.2686 34.6221 67.4629 33.8486 66.4746 33.6445L63.3487 32.9785C62.8116 31.5498 62.0489 30.2393 61.1036 29.0898L62.1026 26.0605C62.4248 25.0938 62.1563 24.0195 61.3399 23.4072C60.835 23.0312 60.3086 22.6768 59.7715 22.3438L59.2022 22.0215C58.6651 21.7207 58.1065 21.4521 57.5264 21.2051C56.5918 20.8076 55.5284 21.1084 54.8409 21.8711L52.7139 24.2559C51.9834 24.1377 51.2315 24.0732 50.4688 24.0732C49.7061 24.0732 48.9541 24.1377 48.2237 24.2559L46.0967 21.8711C45.42 21.1084 44.3565 20.8076 43.4112 21.2051C42.8418 21.4521 42.2832 21.7207 41.7354 22.0215L41.1768 22.3438C40.6289 22.666 40.1133 23.0205 39.6084 23.4072C38.792 24.0195 38.5235 25.0938 38.8457 26.0605L39.8448 29.0898C38.8995 30.2393 38.126 31.5605 37.5996 32.9785L34.4737 33.623C33.4746 33.8271 32.6797 34.6006 32.5616 35.6104C32.4756 36.3301 32.4327 37.0605 32.4327 37.8018C32.4327 38.543 32.4756 39.2734 32.5616 39.9932C32.6797 41.0029 33.4854 41.7764 34.4737 41.9805L37.5996 42.6357C38.1368 44.0645 38.8995 45.375 39.8448 46.5244L38.8457 49.5537C38.5235 50.5205 38.792 51.5947 39.6084 52.207C40.1133 52.583 40.6289 52.9375 41.1768 53.2598L41.7569 53.5928C42.294 53.8936 42.8526 54.1621 43.4219 54.4092C44.3565 54.8066 45.42 54.5059 46.1075 53.7432L48.2344 51.3584C48.9649 51.4766 49.7168 51.541 50.4795 51.541C51.2422 51.541 51.9942 51.4766 52.7246 51.3584L54.8516 53.7432L54.8409 53.7646ZM50.4688 32.6562C51.1459 32.6562 51.8164 32.7896 52.442 33.0487C53.0676 33.3079 53.636 33.6877 54.1148 34.1665C54.5936 34.6453 54.9734 35.2137 55.2325 35.8393C55.4917 36.4649 55.625 37.1354 55.625 37.8125C55.625 38.4896 55.4917 39.1601 55.2325 39.7857C54.9734 40.4113 54.5936 40.9797 54.1148 41.4585C53.636 41.9373 53.0676 42.3171 52.442 42.5763C51.8164 42.8354 51.1459 42.9688 50.4688 42.9688C49.7917 42.9688 49.1212 42.8354 48.4956 42.5763C47.87 42.3171 47.3016 41.9373 46.8228 41.4585C46.344 40.9797 45.9642 40.4113 45.705 39.7857C45.4459 39.1601 45.3125 38.4896 45.3125 37.8125C45.3125 37.1354 45.4459 36.4649 45.705 35.8393C45.9642 35.2137 46.344 34.6453 46.8228 34.1665C47.3016 33.6877 47.87 33.3079 48.4956 33.0487C49.1212 32.7896 49.7917 32.6562 50.4688 32.6562Z" fill="#8CDEDC"/>
</svg>
