<svg width="80" height="80" viewBox="0 0 80 80" fill="none" xmlns="http://www.w3.org/2000/svg">
<g id="mingcute:right-line" clip-path="url(#clip0_125_676)">
<g id="Group">
<path id="Vector" fill-rule="evenodd" clip-rule="evenodd" d="M52.3567 37.6433C52.9816 38.2684 53.3326 39.1161 53.3326 40C53.3326 40.8839 52.9816 41.7316 52.3567 42.3567L33.5 61.2133C33.1925 61.5317 32.8247 61.7856 32.418 61.9603C32.0113 62.135 31.5739 62.227 31.1313 62.2308C30.6887 62.2347 30.2498 62.1503 29.8402 61.9827C29.4305 61.8151 29.0583 61.5676 28.7454 61.2546C28.4324 60.9417 28.1849 60.5695 28.0173 60.1598C27.8497 59.7502 27.7653 59.3113 27.7692 58.8687C27.773 58.4261 27.865 57.9887 28.0397 57.582C28.2144 57.1753 28.4683 56.8075 28.7867 56.5L45.2867 40L28.7867 23.5C28.1795 22.8713 27.8435 22.0293 27.8511 21.1553C27.8587 20.2813 28.2092 19.4453 28.8273 18.8273C29.4453 18.2092 30.2813 17.8587 31.1553 17.8511C32.0293 17.8435 32.8713 18.1795 33.5 18.7867L52.3567 37.6433Z" fill="#8CDEDC"/>
</g>
</g>
<defs>
<clipPath id="clip0_125_676">
<rect width="80" height="80" fill="white"/>
</clipPath>
</defs>
</svg>
