<svg width="40" height="40" viewBox="0 0 40 40" fill="none" xmlns="http://www.w3.org/2000/svg">
<path d="M20 4.16666C20 4.16666 27.5 7.56666 27.5 21.6667C27.5 25.8167 25.7666 30.95 24.8333 33.3333H15.1666C14.2333 30.95 12.5 25.8167 12.5 21.6667C12.5 7.56666 20 4.16666 20 4.16666ZM23.3333 18.3333C23.3333 16.5 21.8333 15 20 15C18.1666 15 16.6666 16.5 16.6666 18.3333C16.6666 20.1667 18.1666 21.6667 20 21.6667C21.8333 21.6667 23.3333 20.1667 23.3333 18.3333ZM12.8166 34.2C12.0166 32.15 10.2833 27.25 10.0333 22.75L6.66663 25V36.6667L12.8166 34.2ZM33.3333 36.6667V25L29.9666 22.75C29.7166 27.2333 27.9666 32.15 27.1833 34.2L33.3333 36.6667Z" fill="url(#paint0_linear_1_77)"/>
<defs>
<linearGradient id="paint0_linear_1_77" x1="20" y1="4.16666" x2="20" y2="36.6667" gradientUnits="userSpaceOnUse">
<stop stop-color="#8CDEDC"/>
<stop offset="1" stop-color="#006847"/>
</linearGradient>
</defs>
</svg>
