<svg width="35" height="40" viewBox="0 0 35 40" fill="none" xmlns="http://www.w3.org/2000/svg">
<path d="M33.8585 7.73538C33.7087 7.56433 33.5252 7.42604 33.3195 7.32915C33.1138 7.23226 32.8904 7.17887 32.6631 7.17231C29.1323 7.08 24.6646 3.30461 21.7108 1.82308C19.8862 0.910767 18.6816 0.309229 17.777 0.150768C17.5933 0.124002 17.4066 0.124521 17.2231 0.152306C16.3185 0.310768 15.1139 0.912306 13.2908 1.82461C10.337 3.30461 5.86926 7.08 2.33849 7.17231C2.11106 7.17921 1.88747 7.23274 1.68158 7.3296C1.47569 7.42646 1.29189 7.56457 1.14157 7.73538C0.829986 8.0879 0.669227 8.54863 0.693874 9.01846C1.45234 24.4385 6.98311 33.9815 16.6877 39.5277C16.94 39.6708 17.22 39.7446 17.4985 39.7446C17.777 39.7446 18.057 39.6708 18.3108 39.5277C28.0154 33.9815 33.5446 24.4385 34.3046 9.01846C34.3307 8.5487 34.1704 8.08762 33.8585 7.73538ZM26.1416 13.8L17.9523 25.8846C17.6585 26.3185 17.197 26.6061 16.74 26.6061C16.2816 26.6061 15.7723 26.3554 15.4508 26.0338L9.67849 20.26C9.49003 20.0708 9.38422 19.8147 9.38422 19.5477C9.38422 19.2807 9.49003 19.0245 9.67849 18.8354L11.1046 17.4062C11.2942 17.2184 11.5502 17.1131 11.817 17.1131C12.0837 17.1131 12.3397 17.2184 12.5293 17.4062L16.2831 21.16L22.8046 11.5338C22.9555 11.3136 23.1875 11.1619 23.4498 11.1121C23.7121 11.0622 23.9834 11.1181 24.2046 11.2677L25.8739 12.4C26.0944 12.5507 26.2463 12.7825 26.2965 13.0448C26.3467 13.3071 26.291 13.5786 26.1416 13.8Z" fill="url(#paint0_linear_1_86)"/>
<defs>
<linearGradient id="paint0_linear_1_86" x1="17.4994" y1="0.131073" x2="17.4994" y2="39.7446" gradientUnits="userSpaceOnUse">
<stop stop-color="#8CDEDC"/>
<stop offset="1" stop-color="#006847"/>
</linearGradient>
</defs>
</svg>
