<svg width="52" height="47" viewBox="0 0 52 47" fill="none" xmlns="http://www.w3.org/2000/svg">
<path d="M48.9167 28.0833H46.6251C46.6251 19.2146 39.4522 12.0416 30.5834 12.0416H28.2917V9.13123C28.9887 8.72886 29.5674 8.15008 29.9697 7.4531C30.3719 6.75612 30.5836 5.96551 30.5834 5.16077C30.5832 4.35603 30.3711 3.56553 29.9685 2.86875C29.5658 2.17198 28.9868 1.5935 28.2897 1.19149C27.5926 0.789475 26.8019 0.578098 25.9971 0.578614C25.1924 0.57913 24.402 0.79152 23.7054 1.19443C23.0087 1.59733 22.4305 2.17655 22.0287 2.87384C21.627 3.57113 21.4159 4.3619 21.4167 5.16665C21.4167 6.86248 22.3334 8.35206 23.7084 9.13123V12.0416H21.4167C12.548 12.0416 5.37508 19.2146 5.37508 28.0833H3.08341C1.823 28.0833 0.791748 29.1146 0.791748 30.375V37.25C0.791748 38.5104 1.823 39.5416 3.08341 39.5416H5.37508V41.8333C5.37508 43.0489 5.85797 44.2147 6.71751 45.0742C7.57705 45.9338 8.74284 46.4166 9.95842 46.4166H42.0417C44.5855 46.4166 46.6251 44.3771 46.6251 41.8333V39.5416H48.9167C50.1772 39.5416 51.2084 38.5104 51.2084 37.25V30.375C51.2084 29.1146 50.1772 28.0833 48.9167 28.0833ZM20.9355 33.8125C20.0417 31.7958 18.048 30.375 15.6876 30.375C13.3272 30.375 11.3334 31.7958 10.4397 33.8125C10.1417 33.1021 9.95842 32.3458 9.95842 31.5208C9.95842 30.0013 10.562 28.5441 11.6364 27.4697C12.7109 26.3953 14.1681 25.7916 15.6876 25.7916C17.2071 25.7916 18.6643 26.3953 19.7387 27.4697C20.8131 28.5441 21.4167 30.0013 21.4167 31.5208C21.4167 32.3458 21.2334 33.1021 20.9355 33.8125ZM41.5605 33.8125C40.6668 31.7958 38.6042 30.375 36.3126 30.375C34.0209 30.375 31.9584 31.7958 31.0647 33.8125C30.7667 33.1021 30.5834 32.3458 30.5834 31.5208C30.5834 30.0013 31.187 28.5441 32.2614 27.4697C33.3359 26.3953 34.7931 25.7916 36.3126 25.7916C37.8321 25.7916 39.2893 26.3953 40.3637 27.4697C41.4381 28.5441 42.0417 30.0013 42.0417 31.5208C42.0417 32.3458 41.8584 33.1021 41.5605 33.8125Z" fill="#8CDEDC"/>
</svg>
