<svg width="38" height="37" viewBox="0 0 38 37" fill="none" xmlns="http://www.w3.org/2000/svg">
<path d="M20.2656 1.25938L24.4719 10.8531C24.6301 11.2142 24.8823 11.5261 25.2022 11.7565C25.5221 11.9868 25.898 12.127 26.2906 12.1625L36.5375 13.0813C37.6969 13.25 38.1594 14.6719 37.3187 15.4906L29.6 21.975C28.975 22.5 28.6906 23.325 28.8625 24.1219L31.1062 34.625C31.3031 35.7781 30.0937 36.6594 29.0562 36.1125L20.1125 30.875C19.7752 30.677 19.3911 30.5726 19 30.5726C18.6089 30.5726 18.2248 30.677 17.8875 30.875L8.94373 36.1094C7.90936 36.6531 6.69686 35.775 6.89373 34.6219L9.13748 24.1188C9.30623 23.3219 9.02498 22.4969 8.39998 21.9719L0.678108 15.4938C-0.159392 14.6781 0.303108 13.2531 1.45936 13.0844L11.7062 12.1656C12.0988 12.1301 12.4747 11.9899 12.7946 11.7596C13.1145 11.5293 13.3668 11.2173 13.525 10.8563L17.7312 1.2625C18.2531 0.2125 19.7469 0.2125 20.2656 1.25938Z" fill="url(#paint0_linear_1_90)"/>
<defs>
<linearGradient id="paint0_linear_1_90" x1="18.9995" y1="0.474609" x2="18.9995" y2="36.2788" gradientUnits="userSpaceOnUse">
<stop stop-color="#8CDEDC"/>
<stop offset="1" stop-color="#006847"/>
</linearGradient>
</defs>
</svg>
