<svg width="48" height="49" viewBox="0 0 48 49" fill="none" xmlns="http://www.w3.org/2000/svg">
<path d="M46.2522 16.9604C49.1168 14.0958 47.8105 10.75 46.2522 9.12292L39.3772 2.24792C36.4897 -0.616666 33.1668 0.689583 31.5397 2.24792L27.6438 6.16667H21.7084C17.3543 6.16667 14.8334 8.45833 13.5501 11.0937L3.37509 21.2687V30.4354L1.74801 32.0396C-1.11657 34.9271 0.189675 38.25 1.74801 39.8771L8.62301 46.7521C9.86051 47.9896 11.1897 48.4479 12.4501 48.4479C14.0772 48.4479 15.5668 47.6458 16.4605 46.7521L22.648 40.5417H30.8751C34.7709 40.5417 36.7418 38.1125 37.4522 35.7292C40.0418 35.0417 41.4626 33.0708 42.0355 31.1458C45.5876 30.2292 46.9168 26.8604 46.9168 24.5V17.625H45.5647L46.2522 16.9604ZM42.3334 24.5C42.3334 25.5312 41.898 26.7917 40.0418 26.7917H37.7501V29.0833C37.7501 30.1146 37.3147 31.375 35.4584 31.375H33.1668V33.6667C33.1668 34.6979 32.7313 35.9583 30.8751 35.9583H20.7688L13.2522 43.475C12.5418 44.1396 12.1293 43.75 11.8772 43.4979L5.02509 36.6687C4.36051 35.9583 4.75009 35.5458 5.00217 35.2937L7.95842 32.3146V23.1479L12.5418 18.5646V22.2083C12.5418 24.9812 14.3751 29.0833 19.4168 29.0833C24.4584 29.0833 26.2918 24.9812 26.2918 22.2083H42.3334V24.5ZM42.998 13.7062L39.1022 17.625H21.7084V22.2083C21.7084 23.2396 21.273 24.5 19.4168 24.5C17.5605 24.5 17.1251 23.2396 17.1251 22.2083V15.3333C17.1251 14.2792 17.5147 10.75 21.7084 10.75H29.523L34.748 5.525C35.4584 4.86042 35.8709 5.25 36.123 5.50208L42.9751 12.3312C43.6397 13.0417 43.2501 13.4542 42.998 13.7062Z" fill="#8CDEDC"/>
</svg>
