<svg width="56" height="55" viewBox="0 0 56 55" fill="none" xmlns="http://www.w3.org/2000/svg">
<g clip-path="url(#clip0_125_599)">
<path d="M26.4723 14.4834V12.0847C26.4723 8.23474 20.7126 6.21808 15.014 6.21808C9.31539 6.21808 3.55566 8.25002 3.55566 12.0847V27.8667C3.55566 31.1667 7.78761 33.107 12.5696 33.6111L12.7223 33.5042V23.2681C12.7223 18.4556 18.3751 14.8806 26.4723 14.4834Z" fill="#8CDEDC"/>
<path d="M29.5279 20.7167C28.8082 19.4688 28.5949 17.9922 28.9321 16.5917H27.9238C20.3918 16.5917 14.7085 19.4639 14.7085 23.2833V42.075C14.7085 45.8945 20.3918 48.7667 27.9238 48.7667C35.4557 48.7667 41.1391 45.8945 41.1391 42.075V38.775C37.3409 41.5623 32.7072 42.974 28.0002 42.7778C24.877 42.8316 21.7704 42.3138 18.8335 41.25V38.607C21.7273 39.8474 24.8523 40.4568 28.0002 40.3945C34.4321 40.3945 39.6877 38.5153 41.1849 35.4597V31.2736C38.389 33.6111 33.6835 35.1389 28.0002 35.1389C24.877 35.1927 21.7704 34.6749 18.8335 33.6111V30.907C21.7273 32.1474 24.8523 32.7568 28.0002 32.6945C34.4321 32.6945 39.6877 30.9986 41.1849 27.9431V23.5278H34.4627C33.4649 23.5378 32.4824 23.2829 31.6155 22.789C30.7485 22.2951 30.0281 21.58 29.5279 20.7167Z" fill="#8CDEDC"/>
<path d="M34.1112 7.33334C31.4376 8.29584 29.5278 9.90001 29.5278 12.1V14.4833H29.9403L34.1112 7.33334Z" fill="#8CDEDC"/>
<path d="M51.9556 23.5278H43.2778V33.5042L43.3542 33.5958C48.1362 33.1069 52.3681 31.1514 52.3681 27.8667V23.4972L51.9556 23.5278Z" fill="#8CDEDC"/>
<path d="M41.5209 1.74167L32.7821 16.8056C32.5787 17.104 32.462 17.4529 32.4448 17.8136C32.4277 18.1742 32.5107 18.5326 32.6847 18.849C32.8587 19.1654 33.1169 19.4275 33.4308 19.6061C33.7446 19.7848 34.1017 19.873 34.4626 19.8611H51.9557C52.3166 19.873 52.6737 19.7848 52.9875 19.6061C53.3013 19.4275 53.5596 19.1654 53.7336 18.849C53.9076 18.5326 53.9906 18.1742 53.9734 17.8136C53.9563 17.4529 53.8395 17.104 53.6362 16.8056L44.8973 1.74167C44.725 1.4469 44.4785 1.20238 44.1823 1.03246C43.8861 0.862541 43.5506 0.773132 43.2091 0.773132C42.8677 0.773132 42.5322 0.862541 42.236 1.03246C41.9398 1.20238 41.6933 1.4469 41.5209 1.74167Z" fill="#8CDEDC"/>
</g>
<defs>
<clipPath id="clip0_125_599">
<rect width="55" height="55" fill="white" transform="translate(0.5)"/>
</clipPath>
</defs>
</svg>
